<?xml version="1.0" encoding="UTF-8"?>
<svg width="630px" height="182px" viewBox="0 0 630 182" version="1.1" xmlns="http://www.w3.org/2000/svg" xmlns:xlink="http://www.w3.org/1999/xlink">
    <title>joyhouselogo-white</title>
    <g id="joyhouselogo-white" stroke="none" stroke-width="1" fill="none" fill-rule="evenodd">
        <g id="Group" transform="translate(6.610000, 47.935000)" fill="#FFFFFF" fill-rule="nonzero">
            <g id="JOY-HOUSE">
                <path d="M54.395,58.19 L54.395,1.955 L36.34,1.955 L36.34,57.385 C36.34,58.8416667 36.2825,60.3558333 36.1675,61.9275 C36.0525,63.4991667 35.7075,64.9558333 35.1325,66.2975 C34.5575,67.6391667 33.6183333,68.7316667 32.315,69.575 C31.0116667,70.4183333 29.1716667,70.84 26.795,70.84 C24.6483333,70.84 22.9041667,70.495 21.5625,69.805 C20.2208333,69.115 19.1666667,68.1758333 18.4,66.9875 C17.6333333,65.7991667 17.0966667,64.3616667 16.79,62.675 C16.4833333,60.9883333 16.33,59.1483333 16.33,57.155 L16.33,53.475 L0,53.475 L0,60.605 C0,65.1283333 0.766666667,68.9808333 2.3,72.1625 C3.83333333,75.3441667 5.865,77.9508333 8.395,79.9825 C10.925,82.0141667 13.8,83.5091667 17.02,84.4675 C20.24,85.4258333 23.575,85.905 27.025,85.905 C33.1583333,85.905 38.0266667,84.9658333 41.63,83.0875 C45.2333333,81.2091667 47.9933333,78.8708333 49.91,76.0725 C51.8266667,73.2741667 53.0533333,70.265 53.59,67.045 C54.1266667,63.825 54.395,60.8733333 54.395,58.19 Z" id="Path"></path>
                <path d="M75.0684618,43.355 C75.0684618,39.7516667 75.4709618,36.2633333 76.2759618,32.89 C77.0809618,29.5166667 78.3651285,26.5075 80.1284618,23.8625 C81.8917952,21.2175 84.1917952,19.1091667 87.0284618,17.5375 C89.8651285,15.9658333 93.3151285,15.18 97.3784618,15.18 C101.441795,15.18 104.891795,15.9658333 107.728462,17.5375 C110.565128,19.1091667 112.865128,21.2175 114.628462,23.8625 C116.391795,26.5075 117.675962,29.5166667 118.480962,32.89 C119.285962,36.2633333 119.688462,39.7516667 119.688462,43.355 C119.688462,46.805 119.285962,50.1591667 118.480962,53.4175 C117.675962,56.6758333 116.391795,59.6083333 114.628462,62.215 C112.865128,64.8216667 110.565128,66.9108333 107.728462,68.4825 C104.891795,70.0541667 101.441795,70.84 97.3784618,70.84 C93.3151285,70.84 89.8651285,70.0541667 87.0284618,68.4825 C84.1917952,66.9108333 81.8917952,64.8216667 80.1284618,62.215 C78.3651285,59.6083333 77.0809618,56.6758333 76.2759618,53.4175 C75.4709618,50.1591667 75.0684618,46.805 75.0684618,43.355 Z M57.0134618,43.355 C57.0134618,49.335 57.9334618,54.9125 59.7734618,60.0875 C61.6134618,65.2625 64.2584618,69.7666667 67.7084618,73.6 C71.1584618,77.4333333 75.3942952,80.4425 80.4159618,82.6275 C85.4376285,84.8125 91.0917952,85.905 97.3784618,85.905 C103.741795,85.905 109.415128,84.8125 114.398462,82.6275 C119.381795,80.4425 123.598462,77.4333333 127.048462,73.6 C130.498462,69.7666667 133.143462,65.2625 134.983462,60.0875 C136.823462,54.9125 137.743462,49.335 137.743462,43.355 C137.743462,37.2216667 136.823462,31.5291667 134.983462,26.2775 C133.143462,21.0258333 130.498462,16.445 127.048462,12.535 C123.598462,8.625 119.381795,5.55833333 114.398462,3.335 C109.415128,1.11166667 103.741795,0 97.3784618,0 C91.0917952,0 85.4376285,1.11166667 80.4159618,3.335 C75.3942952,5.55833333 71.1584618,8.625 67.7084618,12.535 C64.2584618,16.445 61.6134618,21.0258333 59.7734618,26.2775 C57.9334618,31.5291667 57.0134618,37.2216667 57.0134618,43.355 Z" id="Shape"></path>
                <polygon id="Path" points="161.636924 52.095 161.636924 84.065 179.691924 84.065 179.691924 52.555 210.166924 1.955 190.041924 1.955 170.951924 34.385 151.746924 1.955 131.506924 1.955"></polygon>
                <polygon id="Path" points="229.663847 1.955 229.663847 84.065 247.718847 84.065 247.718847 48.645 280.953847 48.645 280.953847 84.065 299.008847 84.065 299.008847 1.955 280.953847 1.955 280.953847 33.465 247.718847 33.465 247.718847 1.955"></polygon>
                <path d="M319.682309,43.355 C319.682309,39.7516667 320.084809,36.2633333 320.889809,32.89 C321.694809,29.5166667 322.978976,26.5075 324.742309,23.8625 C326.505642,21.2175 328.805642,19.1091667 331.642309,17.5375 C334.478976,15.9658333 337.928976,15.18 341.992309,15.18 C346.055642,15.18 349.505642,15.9658333 352.342309,17.5375 C355.178976,19.1091667 357.478976,21.2175 359.242309,23.8625 C361.005642,26.5075 362.289809,29.5166667 363.094809,32.89 C363.899809,36.2633333 364.302309,39.7516667 364.302309,43.355 C364.302309,46.805 363.899809,50.1591667 363.094809,53.4175 C362.289809,56.6758333 361.005642,59.6083333 359.242309,62.215 C357.478976,64.8216667 355.178976,66.9108333 352.342309,68.4825 C349.505642,70.0541667 346.055642,70.84 341.992309,70.84 C337.928976,70.84 334.478976,70.0541667 331.642309,68.4825 C328.805642,66.9108333 326.505642,64.8216667 324.742309,62.215 C322.978976,59.6083333 321.694809,56.6758333 320.889809,53.4175 C320.084809,50.1591667 319.682309,46.805 319.682309,43.355 Z M301.627309,43.355 C301.627309,49.335 302.547309,54.9125 304.387309,60.0875 C306.227309,65.2625 308.872309,69.7666667 312.322309,73.6 C315.772309,77.4333333 320.008142,80.4425 325.029809,82.6275 C330.051476,84.8125 335.705642,85.905 341.992309,85.905 C348.355642,85.905 354.028976,84.8125 359.012309,82.6275 C363.995642,80.4425 368.212309,77.4333333 371.662309,73.6 C375.112309,69.7666667 377.757309,65.2625 379.597309,60.0875 C381.437309,54.9125 382.357309,49.335 382.357309,43.355 C382.357309,37.2216667 381.437309,31.5291667 379.597309,26.2775 C377.757309,21.0258333 375.112309,16.445 371.662309,12.535 C368.212309,8.625 363.995642,5.55833333 359.012309,3.335 C354.028976,1.11166667 348.355642,0 341.992309,0 C335.705642,0 330.051476,1.11166667 325.029809,3.335 C320.008142,5.55833333 315.772309,8.625 312.322309,12.535 C308.872309,16.445 306.227309,21.0258333 304.387309,26.2775 C302.547309,31.5291667 301.627309,37.2216667 301.627309,43.355 Z" id="Shape"></path>
                <path d="M454.665771,53.015 L454.665771,1.955 L436.610771,1.955 L436.610771,53.015 C436.610771,59.1483333 435.384104,63.6525 432.930771,66.5275 C430.477438,69.4025 426.030771,70.84 419.590771,70.84 C415.910771,70.84 412.978271,70.3225 410.793271,69.2875 C408.608271,68.2525 406.902438,66.9108333 405.675771,65.2625 C404.449104,63.6141667 403.644104,61.7166667 403.260771,59.57 C402.877438,57.4233333 402.685771,55.2383333 402.685771,53.015 L402.685771,1.955 L384.630771,1.955 L384.630771,53.015 C384.630771,64.2083333 387.678271,72.4883333 393.773271,77.855 C399.868271,83.2216667 408.474104,85.905 419.590771,85.905 C430.554104,85.905 439.140771,83.2025 445.350771,77.7975 C451.560771,72.3925 454.665771,64.1316667 454.665771,53.015 Z" id="Path"></path>
                <path d="M472.809233,56.81 L455.329233,56.81 C455.252566,61.87 456.172566,66.24 458.089233,69.92 C460.005899,73.6 462.593399,76.6283333 465.851733,79.005 C469.110066,81.3816667 472.866733,83.1258333 477.121733,84.2375 C481.376733,85.3491667 485.765899,85.905 490.289233,85.905 C495.885899,85.905 500.811733,85.2533333 505.066733,83.95 C509.321733,82.6466667 512.886733,80.8258333 515.761733,78.4875 C518.636733,76.1491667 520.802566,73.37 522.259233,70.15 C523.715899,66.93 524.444233,63.4416667 524.444233,59.685 C524.444233,55.085 523.466733,51.3091667 521.511733,48.3575 C519.556733,45.4058333 517.237566,43.0483333 514.554233,41.285 C511.8709,39.5216667 509.168399,38.2375 506.446733,37.4325 C503.725066,36.6275 501.597566,36.0716667 500.064233,35.765 C494.927566,34.4616667 490.768399,33.3883333 487.586733,32.545 C484.405066,31.7016667 481.9134,30.8583333 480.111733,30.015 C478.310066,29.1716667 477.102566,28.2516667 476.489233,27.255 C475.8759,26.2583333 475.569233,24.955 475.569233,23.345 C475.569233,21.5816667 475.952566,20.125 476.719233,18.975 C477.4859,17.825 478.463399,16.8666667 479.651733,16.1 C480.840066,15.3333333 482.162566,14.7966667 483.619233,14.49 C485.075899,14.1833333 486.532566,14.03 487.989233,14.03 C490.212566,14.03 492.263399,14.2216667 494.141733,14.605 C496.020066,14.9883333 497.687566,15.64 499.144233,16.56 C500.600899,17.48 501.770066,18.745 502.651733,20.355 C503.5334,21.965 504.0509,23.9966667 504.204233,26.45 L521.684233,26.45 C521.684233,21.6966667 520.7834,17.6525 518.981733,14.3175 C517.180066,10.9825 514.745899,8.24166667 511.679233,6.095 C508.612566,3.94833333 505.105066,2.39583333 501.156733,1.4375 C497.208399,0.479166667 493.087566,0 488.794233,0 C485.114233,0 481.434233,0.498333333 477.754233,1.495 C474.074233,2.49166667 470.777566,4.025 467.864233,6.095 C464.950899,8.165 462.5934,10.7525 460.791733,13.8575 C458.990066,16.9625 458.089233,20.6233333 458.089233,24.84 C458.089233,28.5966667 458.798399,31.7975 460.216733,34.4425 C461.635066,37.0875 463.494233,39.2916667 465.794233,41.055 C468.094233,42.8183333 470.700899,44.2558333 473.614233,45.3675 C476.527566,46.4791667 479.517566,47.4183333 482.584233,48.185 C485.574233,49.0283333 488.525899,49.795 491.439233,50.485 C494.352566,51.175 496.959233,51.98 499.259233,52.9 C501.559233,53.82 503.418399,54.97 504.836733,56.35 C506.255066,57.73 506.964233,59.5316667 506.964233,61.755 C506.964233,63.825 506.427566,65.5308333 505.354233,66.8725 C504.2809,68.2141667 502.939233,69.2683333 501.329233,70.035 C499.719233,70.8016667 497.994233,71.3191667 496.154233,71.5875 C494.314233,71.8558333 492.589233,71.99 490.979233,71.99 C488.602566,71.99 486.302566,71.7025 484.079233,71.1275 C481.8559,70.5525 479.920066,69.6708333 478.271733,68.4825 C476.6234,67.2941667 475.3009,65.7416667 474.304233,63.825 C473.307566,61.9083333 472.809233,59.57 472.809233,56.81 Z" id="Path"></path>
                <polygon id="Path" points="525.452695 1.955 525.452695 84.065 587.782695 84.065 587.782695 68.885 543.507695 68.885 543.507695 48.76 583.297695 48.76 583.297695 34.73 543.507695 34.73 543.507695 17.135 586.862695 17.135 586.862695 1.955"></polygon>
            </g>
            <g id="®" transform="translate(590.510000, 0.905000)">
                <path d="M14.4,14.04 L11.6,14.04 L11.6,8.08 L15.48,8.08 C16.0133333,8.08 16.52,8.12 17,8.2 C17.48,8.28 17.9133333,8.43333333 18.3,8.66 C18.6866667,8.88666667 18.9933333,9.18666667 19.22,9.56 C19.4466667,9.93333333 19.56,10.4266667 19.56,11.04 C19.56,11.76 19.4133333,12.3266667 19.12,12.74 C18.8266667,13.1533333 18.44,13.4533333 17.96,13.64 C17.48,13.8266667 16.9266667,13.94 16.3,13.98 C15.6733333,14.02 15.04,14.04 14.4,14.04 Z M11.6,23.48 L11.6,15.84 L15.16,15.84 L20,23.48 L22.48,23.48 L17.36,15.84 C17.9466667,15.7333333 18.5,15.5666667 19.02,15.34 C19.54,15.1133333 20,14.8066667 20.4,14.42 C20.8,14.0333333 21.1133333,13.56 21.34,13 C21.5666667,12.44 21.68,11.7866667 21.68,11.04 C21.68,9.49333333 21.2333333,8.31333333 20.34,7.5 C19.4466667,6.68666667 18.0266667,6.28 16.08,6.28 L9.48,6.28 L9.48,23.48 L11.6,23.48 Z M14.88,2.12 C16.6666667,2.12 18.3266667,2.45333333 19.86,3.12 C21.3933333,3.78666667 22.72,4.69333333 23.84,5.84 C24.96,6.98666667 25.84,8.33333333 26.48,9.88 C27.12,11.4266667 27.44,13.0933333 27.44,14.88 C27.44,16.6666667 27.12,18.3333333 26.48,19.88 C25.84,21.4266667 24.96,22.7733333 23.84,23.92 C22.72,25.0666667 21.3933333,25.9733333 19.86,26.64 C18.3266667,27.3066667 16.6666667,27.64 14.88,27.64 C13.0666667,27.64 11.3933333,27.3066667 9.86,26.64 C8.32666667,25.9733333 7,25.0666667 5.88,23.92 C4.76,22.7733333 3.88666667,21.4266667 3.26,19.88 C2.63333333,18.3333333 2.32,16.6666667 2.32,14.88 C2.32,13.0933333 2.63333333,11.4266667 3.26,9.88 C3.88666667,8.33333333 4.76,6.98666667 5.88,5.84 C7,4.69333333 8.32666667,3.78666667 9.86,3.12 C11.3933333,2.45333333 13.0666667,2.12 14.88,2.12 Z M14.88,0 C12.7733333,0 10.8133333,0.38 9,1.14 C7.18666667,1.9 5.61333333,2.95333333 4.28,4.3 C2.94666667,5.64666667 1.9,7.22666667 1.14,9.04 C0.38,10.8533333 0,12.8 0,14.88 C0,16.9866667 0.38,18.94 1.14,20.74 C1.9,22.54 2.94666667,24.1066667 4.28,25.44 C5.61333333,26.7733333 7.18666667,27.82 9,28.58 C10.8133333,29.34 12.7733333,29.72 14.88,29.72 C16.9866667,29.72 18.9466667,29.34 20.76,28.58 C22.5733333,27.82 24.1466667,26.7733333 25.48,25.44 C26.8133333,24.1066667 27.86,22.54 28.62,20.74 C29.38,18.94 29.76,16.9866667 29.76,14.88 C29.76,12.8 29.38,10.8533333 28.62,9.04 C27.86,7.22666667 26.8133333,5.64666667 25.48,4.3 C24.1466667,2.95333333 22.5733333,1.9 20.76,1.14 C18.9466667,0.38 16.9866667,0 14.88,0 Z" id="Shape"></path>
            </g>
        </g>
    </g>
</svg>