<?xml version="1.0" encoding="UTF-8"?>
<svg width="630px" height="182px" viewBox="0 0 630 182" version="1.1" xmlns="http://www.w3.org/2000/svg" xmlns:xlink="http://www.w3.org/1999/xlink">
    <title>WYNENTAL-black</title>
    <g id="WYNENTAL-black" stroke="none" stroke-width="1" fill="none" fill-rule="evenodd">
        <g id="WYNENTAL-BAR" transform="translate(12.240000, 62.880000)" fill="#000000" fill-rule="nonzero">
            <polygon id="Path" points="59.68 57.12 75.04 0 62.72 0 53.36 39.36 53.2 39.36 43.44 0 31.68 0 21.76 38.88 21.6 38.88 12.56 0 0 0 15.12 57.12 27.84 57.12 37.36 18.24 37.52 18.24 47.2 57.12"></polygon>
            <polygon id="Path" points="90.061539 34.88 90.061539 57.12 102.621539 57.12 102.621539 35.2 123.821539 0 109.821539 0 96.541539 22.56 83.181539 0 69.101539 0"></polygon>
            <polygon id="Path" points="123.083078 0 123.083078 57.12 134.843078 57.12 134.843078 18.88 135.003078 18.88 158.763078 57.12 171.323078 57.12 171.323078 0 159.563078 0 159.563078 38.32 159.403078 38.32 135.563078 0"></polygon>
            <polygon id="Path" points="176.824617 0 176.824617 57.12 220.184617 57.12 220.184617 46.56 189.384617 46.56 189.384617 32.56 217.064617 32.56 217.064617 22.8 189.384617 22.8 189.384617 10.56 219.544617 10.56 219.544617 0"></polygon>
            <polygon id="Path" points="223.126156 0 223.126156 57.12 234.886156 57.12 234.886156 18.88 235.046156 18.88 258.806156 57.12 271.366156 57.12 271.366156 0 259.606156 0 259.606156 38.32 259.446156 38.32 235.606156 0"></polygon>
            <polygon id="Path" points="289.507695 10.56 289.507695 57.12 302.067695 57.12 302.067695 10.56 319.187695 10.56 319.187695 0 272.387695 0 272.387695 10.56"></polygon>
            <path d="M327.249234,35.04 L334.689234,14.08 L334.849234,14.08 L342.049234,35.04 L327.249234,35.04 Z M328.449234,0 L306.849234,57.12 L319.489234,57.12 L323.969234,44.4 L345.329234,44.4 L349.649234,57.12 L362.689234,57.12 L341.329234,0 L328.449234,0 Z" id="Shape"></path>
            <polygon id="Path" points="362.110773 0 362.110773 57.12 402.510773 57.12 402.510773 46.56 374.670773 46.56 374.670773 0"></polygon>
            <path d="M433.273851,23.12 L433.273851,9.76 L445.033851,9.76 C446.153851,9.76 447.233851,9.85333333 448.273851,10.04 C449.313851,10.2266667 450.233851,10.56 451.033851,11.04 C451.833851,11.52 452.473851,12.1866667 452.953851,13.04 C453.433851,13.8933333 453.673851,14.9866667 453.673851,16.32 C453.673851,18.72 452.953851,20.4533333 451.513851,21.52 C450.073851,22.5866667 448.233851,23.12 445.993851,23.12 L433.273851,23.12 Z M420.713851,0 L420.713851,57.12 L448.393851,57.12 C450.953851,57.12 453.447184,56.8 455.873851,56.16 C458.300518,55.52 460.460518,54.5333333 462.353851,53.2 C464.247184,51.8666667 465.753851,50.1466667 466.873851,48.04 C467.993851,45.9333333 468.553851,43.44 468.553851,40.56 C468.553851,36.9866667 467.687184,33.9333333 465.953851,31.4 C464.220518,28.8666667 461.593851,27.0933333 458.073851,26.08 C460.633851,24.8533333 462.567184,23.28 463.873851,21.36 C465.180518,19.44 465.833851,17.04 465.833851,14.16 C465.833851,11.4933333 465.393851,9.25333333 464.513851,7.44 C463.633851,5.62666667 462.393851,4.17333333 460.793851,3.08 C459.193851,1.98666667 457.273851,1.2 455.033851,0.72 C452.793851,0.24 450.313851,0 447.593851,0 L420.713851,0 Z M433.273851,47.36 L433.273851,31.68 L446.953851,31.68 C449.673851,31.68 451.860518,32.3066667 453.513851,33.56 C455.167184,34.8133333 455.993851,36.9066667 455.993851,39.84 C455.993851,41.3333333 455.740518,42.56 455.233851,43.52 C454.727184,44.48 454.047184,45.24 453.193851,45.8 C452.340518,46.36 451.353851,46.76 450.233851,47 C449.113851,47.24 447.940518,47.36 446.713851,47.36 L433.273851,47.36 Z" id="Shape"></path>
            <path d="M485.89539,35.04 L493.33539,14.08 L493.49539,14.08 L500.69539,35.04 L485.89539,35.04 Z M487.09539,0 L465.49539,57.12 L478.13539,57.12 L482.61539,44.4 L503.97539,44.4 L508.29539,57.12 L521.33539,57.12 L499.97539,0 L487.09539,0 Z" id="Shape"></path>
            <path d="M533.316929,25.84 L533.316929,9.76 L547.076929,9.76 C549.956929,9.76 552.116929,10.3866667 553.556929,11.64 C554.996929,12.8933333 555.716929,14.9066667 555.716929,17.68 C555.716929,20.56 554.996929,22.64 553.556929,23.92 C552.116929,25.2 549.956929,25.84 547.076929,25.84 L533.316929,25.84 Z M520.756929,0 L520.756929,57.12 L533.316929,57.12 L533.316929,34.8 L545.876929,34.8 C549.023596,34.8 551.290262,35.4933333 552.676929,36.88 C554.063596,38.2666667 554.970262,40.4533333 555.396929,43.44 C555.716929,45.7333333 555.956929,48.1333333 556.116929,50.64 C556.276929,53.1466667 556.703596,55.3066667 557.396929,57.12 L569.956929,57.12 C569.370262,56.32 568.930262,55.3466667 568.636929,54.2 C568.343596,53.0533333 568.130262,51.84 567.996929,50.56 C567.863596,49.28 567.770262,48.0266667 567.716929,46.8 C567.663596,45.5733333 567.610262,44.5066667 567.556929,43.6 C567.450262,42.16 567.250262,40.72 566.956929,39.28 C566.663596,37.84 566.196929,36.52 565.556929,35.32 C564.916929,34.12 564.090262,33.08 563.076929,32.2 C562.063596,31.32 560.783596,30.6666667 559.236929,30.24 L559.236929,30.08 C562.436929,28.8 564.743596,26.9333333 566.156929,24.48 C567.570262,22.0266667 568.276929,19.12 568.276929,15.76 C568.276929,13.5733333 567.890262,11.5333333 567.116929,9.64 C566.343596,7.74666667 565.223596,6.08 563.756929,4.64 C562.290262,3.2 560.530262,2.06666667 558.476929,1.24 C556.423596,0.413333333 554.116929,0 551.556929,0 L520.756929,0 Z" id="Shape"></path>
        </g>
        <g id="®" transform="translate(582.840000, 63.130000)" fill="#000000" fill-rule="nonzero">
            <path d="M10.8,10.53 L8.7,10.53 L8.7,6.06 L11.61,6.06 C12.01,6.06 12.39,6.09 12.75,6.15 C13.11,6.21 13.435,6.325 13.725,6.495 C14.015,6.665 14.245,6.89 14.415,7.17 C14.585,7.45 14.67,7.82 14.67,8.28 C14.67,8.82 14.56,9.245 14.34,9.555 C14.12,9.865 13.83,10.09 13.47,10.23 C13.11,10.37 12.695,10.455 12.225,10.485 C11.755,10.515 11.28,10.53 10.8,10.53 Z M8.7,17.61 L8.7,11.88 L11.37,11.88 L15,17.61 L16.86,17.61 L13.02,11.88 C13.46,11.8 13.875,11.675 14.265,11.505 C14.655,11.335 15,11.105 15.3,10.815 C15.6,10.525 15.835,10.17 16.005,9.75 C16.175,9.33 16.26,8.84 16.26,8.28 C16.26,7.12 15.925,6.235 15.255,5.625 C14.585,5.015 13.52,4.71 12.06,4.71 L7.11,4.71 L7.11,17.61 L8.7,17.61 Z M11.16,1.59 C12.5,1.59 13.745,1.84 14.895,2.34 C16.045,2.84 17.04,3.52 17.88,4.38 C18.72,5.24 19.38,6.25 19.86,7.41 C20.34,8.57 20.58,9.82 20.58,11.16 C20.58,12.5 20.34,13.75 19.86,14.91 C19.38,16.07 18.72,17.08 17.88,17.94 C17.04,18.8 16.045,19.48 14.895,19.98 C13.745,20.48 12.5,20.73 11.16,20.73 C9.8,20.73 8.545,20.48 7.395,19.98 C6.245,19.48 5.25,18.8 4.41,17.94 C3.57,17.08 2.915,16.07 2.445,14.91 C1.975,13.75 1.74,12.5 1.74,11.16 C1.74,9.82 1.975,8.57 2.445,7.41 C2.915,6.25 3.57,5.24 4.41,4.38 C5.25,3.52 6.245,2.84 7.395,2.34 C8.545,1.84 9.8,1.59 11.16,1.59 Z M11.16,0 C9.58,0 8.11,0.285 6.75,0.855 C5.39,1.425 4.21,2.215 3.21,3.225 C2.21,4.235 1.425,5.42 0.855,6.78 C0.285,8.14 0,9.6 0,11.16 C0,12.74 0.285,14.205 0.855,15.555 C1.425,16.905 2.21,18.08 3.21,19.08 C4.21,20.08 5.39,20.865 6.75,21.435 C8.11,22.005 9.58,22.29 11.16,22.29 C12.74,22.29 14.21,22.005 15.57,21.435 C16.93,20.865 18.11,20.08 19.11,19.08 C20.11,18.08 20.895,16.905 21.465,15.555 C22.035,14.205 22.32,12.74 22.32,11.16 C22.32,9.6 22.035,8.14 21.465,6.78 C20.895,5.42 20.11,4.235 19.11,3.225 C18.11,2.215 16.93,1.425 15.57,0.855 C14.21,0.285 12.74,0 11.16,0 Z" id="Shape"></path>
        </g>
    </g>
</svg>